<svg width="36" height="36" viewBox="0 0 36 36" fill="none" xmlns="http://www.w3.org/2000/svg">
<rect x="0.5" y="0.5" width="35" height="35" rx="17.5" stroke="white"/>
<path d="M18 14.25C17.2583 14.25 16.5333 14.4699 15.9166 14.882C15.2999 15.294 14.8193 15.8797 14.5355 16.5649C14.2516 17.2502 14.1774 18.0042 14.3221 18.7316C14.4668 19.459 14.8239 20.1272 15.3483 20.6517C15.8728 21.1761 16.541 21.5333 17.2684 21.6779C17.9958 21.8226 18.7498 21.7484 19.4351 21.4645C20.1203 21.1807 20.706 20.7001 21.118 20.0834C21.5301 19.4667 21.75 18.7417 21.75 18C21.749 17.0058 21.3535 16.0525 20.6505 15.3495C19.9475 14.6465 18.9942 14.251 18 14.25ZM18 20.5C17.5055 20.5 17.0222 20.3534 16.6111 20.0787C16.2 19.804 15.8795 19.4135 15.6903 18.9567C15.5011 18.4999 15.4516 17.9972 15.548 17.5123C15.6445 17.0273 15.8826 16.5819 16.2322 16.2322C16.5819 15.8826 17.0273 15.6445 17.5123 15.548C17.9972 15.4516 18.4999 15.5011 18.9567 15.6903C19.4135 15.8795 19.804 16.2 20.0787 16.6111C20.3534 17.0222 20.5 17.5055 20.5 18C20.5 18.663 20.2366 19.2989 19.7678 19.7678C19.2989 20.2366 18.663 20.5 18 20.5ZM21.75 9.875H14.25C13.0901 9.87624 11.978 10.3376 11.1578 11.1578C10.3376 11.978 9.87624 13.0901 9.875 14.25V21.75C9.87624 22.9099 10.3376 24.022 11.1578 24.8422C11.978 25.6624 13.0901 26.1238 14.25 26.125H21.75C22.9099 26.1238 24.022 25.6624 24.8422 24.8422C25.6624 24.022 26.1238 22.9099 26.125 21.75V14.25C26.1238 13.0901 25.6624 11.978 24.8422 11.1578C24.022 10.3376 22.9099 9.87624 21.75 9.875ZM24.875 21.75C24.875 22.5788 24.5458 23.3737 23.9597 23.9597C23.3737 24.5458 22.5788 24.875 21.75 24.875H14.25C13.4212 24.875 12.6263 24.5458 12.0403 23.9597C11.4542 23.3737 11.125 22.5788 11.125 21.75V14.25C11.125 13.4212 11.4542 12.6263 12.0403 12.0403C12.6263 11.4542 13.4212 11.125 14.25 11.125H21.75C22.5788 11.125 23.3737 11.4542 23.9597 12.0403C24.5458 12.6263 24.875 13.4212 24.875 14.25V21.75ZM23 13.9375C23 14.1229 22.945 14.3042 22.842 14.4583C22.739 14.6125 22.5926 14.7327 22.4213 14.8036C22.25 14.8746 22.0615 14.8932 21.8796 14.857C21.6977 14.8208 21.5307 14.7315 21.3996 14.6004C21.2685 14.4693 21.1792 14.3023 21.143 14.1204C21.1068 13.9385 21.1254 13.75 21.1964 13.5787C21.2673 13.4074 21.3875 13.261 21.5417 13.158C21.6958 13.055 21.8771 13 22.0625 13C22.3111 13 22.5496 13.0988 22.7254 13.2746C22.9012 13.4504 23 13.6889 23 13.9375Z" fill="white"/>
</svg>
