<svg width="36" height="36" viewBox="0 0 36 36" fill="none" xmlns="http://www.w3.org/2000/svg">
<rect x="0.5" y="0.5" width="35" height="35" rx="17.5" stroke="white"/>
<path d="M24.875 9.875H11.125C10.7935 9.875 10.4755 10.0067 10.2411 10.2411C10.0067 10.4755 9.875 10.7935 9.875 11.125V24.875C9.875 25.2065 10.0067 25.5245 10.2411 25.7589C10.4755 25.9933 10.7935 26.125 11.125 26.125H24.875C25.2065 26.125 25.5245 25.9933 25.7589 25.7589C25.9933 25.5245 26.125 25.2065 26.125 24.875V11.125C26.125 10.7935 25.9933 10.4755 25.7589 10.2411C25.5245 10.0067 25.2065 9.875 24.875 9.875ZM24.875 24.875H11.125V11.125H24.875V24.875ZM15.5 16.75V21.75C15.5 21.9158 15.4342 22.0747 15.3169 22.1919C15.1997 22.3092 15.0408 22.375 14.875 22.375C14.7092 22.375 14.5503 22.3092 14.4331 22.1919C14.3158 22.0747 14.25 21.9158 14.25 21.75V16.75C14.25 16.5842 14.3158 16.4253 14.4331 16.3081C14.5503 16.1908 14.7092 16.125 14.875 16.125C15.0408 16.125 15.1997 16.1908 15.3169 16.3081C15.4342 16.4253 15.5 16.5842 15.5 16.75ZM22.375 18.9375V21.75C22.375 21.9158 22.3092 22.0747 22.1919 22.1919C22.0747 22.3092 21.9158 22.375 21.75 22.375C21.5842 22.375 21.4253 22.3092 21.3081 22.1919C21.1908 22.0747 21.125 21.9158 21.125 21.75V18.9375C21.125 18.5231 20.9604 18.1257 20.6674 17.8326C20.3743 17.5396 19.9769 17.375 19.5625 17.375C19.1481 17.375 18.7507 17.5396 18.4576 17.8326C18.1646 18.1257 18 18.5231 18 18.9375V21.75C18 21.9158 17.9342 22.0747 17.8169 22.1919C17.6997 22.3092 17.5408 22.375 17.375 22.375C17.2092 22.375 17.0503 22.3092 16.9331 22.1919C16.8158 22.0747 16.75 21.9158 16.75 21.75V16.75C16.7508 16.5969 16.8077 16.4494 16.91 16.3355C17.0123 16.2216 17.1529 16.1492 17.305 16.1321C17.4571 16.115 17.6102 16.1542 17.7353 16.2425C17.8604 16.3308 17.9488 16.4619 17.9836 16.6109C18.4064 16.3241 18.8993 16.1579 19.4095 16.1301C19.9196 16.1023 20.4277 16.214 20.8792 16.4532C21.3306 16.6924 21.7084 17.05 21.972 17.4877C22.2355 17.9254 22.3748 18.4266 22.375 18.9375ZM15.8125 14.5625C15.8125 14.7479 15.7575 14.9292 15.6545 15.0833C15.5515 15.2375 15.4051 15.3577 15.2338 15.4286C15.0625 15.4996 14.874 15.5182 14.6921 15.482C14.5102 15.4458 14.3432 15.3565 14.2121 15.2254C14.081 15.0943 13.9917 14.9273 13.9555 14.7454C13.9193 14.5635 13.9379 14.375 14.0089 14.2037C14.0798 14.0324 14.2 13.886 14.3542 13.783C14.5083 13.68 14.6896 13.625 14.875 13.625C15.1236 13.625 15.3621 13.7238 15.5379 13.8996C15.7137 14.0754 15.8125 14.3139 15.8125 14.5625Z" fill="white"/>
</svg>
