<svg width="36" height="36" viewBox="0 0 36 36" fill="none" xmlns="http://www.w3.org/2000/svg">
<rect x="0.5" y="0.5" width="35" height="35" rx="17.5" stroke="white"/>
<path d="M25.5 11.75H10.5C10.3342 11.75 10.1753 11.8158 10.0581 11.9331C9.94085 12.0503 9.875 12.2092 9.875 12.375V23C9.875 23.3315 10.0067 23.6495 10.2411 23.8839C10.4755 24.1183 10.7935 24.25 11.125 24.25H24.875C25.2065 24.25 25.5245 24.1183 25.7589 23.8839C25.9933 23.6495 26.125 23.3315 26.125 23V12.375C26.125 12.2092 26.0592 12.0503 25.9419 11.9331C25.8247 11.8158 25.6658 11.75 25.5 11.75ZM23.893 13L18 18.4023L12.107 13H23.893ZM24.875 23H11.125V13.7961L17.5773 19.7109C17.6927 19.8168 17.8435 19.8755 18 19.8755C18.1565 19.8755 18.3073 19.8168 18.4227 19.7109L24.875 13.7961V23Z" fill="white"/>
</svg>
