<svg width="129" height="48" viewBox="0 0 129 48" fill="none" xmlns="http://www.w3.org/2000/svg">
<path d="M106.371 23.9067C106.371 25.5691 106.718 27.0454 107.413 28.3357C108.107 29.6259 109.063 30.6432 110.279 31.3875C111.494 32.1319 112.909 32.5041 114.521 32.5041C116.134 32.5041 117.548 32.1319 118.764 31.3875C119.98 30.6432 120.923 29.6259 121.593 28.3357C122.288 27.0454 122.635 25.5691 122.635 23.9067C122.635 22.2443 122.3 20.768 121.63 19.4778C120.96 18.1876 120.017 17.1703 118.801 16.4259C117.586 15.6816 116.159 15.3094 114.521 15.3094C112.909 15.3094 111.494 15.6816 110.279 16.4259C109.063 17.1703 108.107 18.1876 107.413 19.4778C106.718 20.768 106.371 22.2443 106.371 23.9067ZM100.751 23.9067C100.751 21.9218 101.098 20.1105 101.793 18.4729C102.488 16.8105 103.455 15.3714 104.696 14.1556C105.936 12.9398 107.388 12.0094 109.05 11.3643C110.738 10.6943 112.561 10.3594 114.521 10.3594C116.506 10.3594 118.33 10.6943 119.992 11.3643C121.655 12.0094 123.106 12.9398 124.347 14.1556C125.612 15.3714 126.58 16.8105 127.25 18.4729C127.945 20.1105 128.292 21.9218 128.292 23.9067C128.292 25.8669 127.945 27.6906 127.25 29.3778C126.58 31.0402 125.625 32.4917 124.384 33.7323C123.168 34.9729 121.717 35.9405 120.03 36.6353C118.367 37.3052 116.531 37.6402 114.521 37.6402C112.512 37.6402 110.663 37.3052 108.976 36.6353C107.314 35.9405 105.862 34.9729 104.621 33.7323C103.381 32.4917 102.426 31.0402 101.756 29.3778C101.086 27.6906 100.751 25.8669 100.751 23.9067Z" fill="white"/>
<path d="M84.589 24.8177H90.078L98.3658 36.6679H92.2226L84.589 24.8177ZM78.8093 11.2227H84.0074V36.6679H78.8093V11.2227ZM81.9718 15.6574V11.2227H87.3517C89.3631 11.2227 91.0715 11.5619 92.4771 12.2405C93.8826 12.919 94.961 13.8641 95.7123 15.0758C96.4635 16.2875 96.8391 17.7051 96.8391 19.3288C96.8391 20.9282 96.4635 22.3459 95.7123 23.5818C94.961 24.7935 93.8826 25.7386 92.4771 26.4171C91.0715 27.0957 89.3631 27.4349 87.3517 27.4349H81.9718V23.291H87.0245C87.9454 23.291 88.733 23.1456 89.3873 22.8548C90.0658 22.5397 90.5869 22.1035 90.9504 21.5462C91.3139 20.9646 91.4956 20.2739 91.4956 19.4742C91.4956 18.6745 91.3139 17.9959 90.9504 17.4386C90.5869 16.857 90.0658 16.4208 89.3873 16.13C88.733 15.8149 87.9454 15.6574 87.0245 15.6574H81.9718Z" fill="white"/>
<path d="M56.4942 31.6891L57.1122 27.5815H69.3259L69.9439 31.6891H56.4942ZM63.1463 20.2751L59.3295 29.0356L59.4386 30.1988L56.0944 37.4689H50.2419L63.1463 10.5332L76.0507 37.4689H70.162L66.8904 30.4169L66.9631 29.1083L63.1463 20.2751Z" fill="white"/>
<path d="M30.3683 15.9119V11.2227H49.6704L37.2022 32.1241H48.5436V36.6679H28.9507L41.2735 15.9119H30.3683Z" fill="white"/>
<path d="M5.61992 23.9067C5.61992 25.5691 5.96729 27.0454 6.66202 28.3357C7.35676 29.6259 8.31202 30.6432 9.52781 31.3875C10.7436 32.1319 12.1579 32.5041 13.7707 32.5041C15.3834 32.5041 16.7977 32.1319 18.0135 31.3875C19.2293 30.6432 20.1722 29.6259 20.8421 28.3357C21.5368 27.0454 21.8842 25.5691 21.8842 23.9067C21.8842 22.2443 21.5492 20.768 20.8793 19.4778C20.2094 18.1876 19.2665 17.1703 18.0507 16.4259C16.8349 15.6816 15.4083 15.3094 13.7707 15.3094C12.1579 15.3094 10.7436 15.6816 9.52781 16.4259C8.31202 17.1703 7.35676 18.1876 6.66202 19.4778C5.96729 20.768 5.61992 22.2443 5.61992 23.9067ZM0 23.9067C0 21.9218 0.347368 20.1105 1.0421 18.4729C1.73684 16.8105 2.70451 15.3714 3.94511 14.1556C5.18571 12.9398 6.63721 12.0094 8.29962 11.3643C9.98683 10.6943 11.8105 10.3594 13.7707 10.3594C15.7556 10.3594 17.5793 10.6943 19.2417 11.3643C20.9041 12.0094 22.3556 12.9398 23.5962 14.1556C24.8616 15.3714 25.8293 16.8105 26.4992 18.4729C27.194 20.1105 27.5413 21.9218 27.5413 23.9067C27.5413 25.8669 27.194 27.6906 26.4992 29.3778C25.8293 31.0402 24.874 32.4917 23.6334 33.7323C22.4176 34.9729 20.9661 35.9405 19.2789 36.6353C17.6165 37.3052 15.7804 37.6402 13.7707 37.6402C11.7609 37.6402 9.9124 37.3052 8.22518 36.6353C6.56278 35.9405 5.11127 34.9729 3.87067 33.7323C2.63007 32.4917 1.67481 31.0402 1.00489 29.3778C0.334962 27.6906 0 25.8669 0 23.9067Z" fill="white"/>
<path d="M23.408 42.4746H4.41504V47.9998H23.408V42.4746Z" fill="white"/>
<path d="M124.243 0H105.25V5.52523H124.243V0Z" fill="white"/>
</svg>
